<mxfile host="app.diagrams.net" modified="2023-02-16T09:06:36.447Z" agent="5.0 (Windows)" etag="TGTmWVIjKHeAsmzQjA_j" version="20.8.20" type="github">
  <diagram id="C5RBs43oDa-KdzZeNtuy" name="Page-1">
    <mxGraphModel dx="1434" dy="739" grid="1" gridSize="10" guides="1" tooltips="1" connect="1" arrows="1" fold="1" page="1" pageScale="1" pageWidth="827" pageHeight="1169" math="0" shadow="0">
      <root>
        <mxCell id="WIyWlLk6GJQsqaUBKTNV-0" />
        <mxCell id="WIyWlLk6GJQsqaUBKTNV-1" parent="WIyWlLk6GJQsqaUBKTNV-0" />
        <mxCell id="qE77xGYlSXGq1pr1HXSm-2" value="" style="edgeStyle=orthogonalEdgeStyle;rounded=0;orthogonalLoop=1;jettySize=auto;html=1;" edge="1" parent="WIyWlLk6GJQsqaUBKTNV-1" source="qE77xGYlSXGq1pr1HXSm-0" target="qE77xGYlSXGq1pr1HXSm-1">
          <mxGeometry relative="1" as="geometry" />
        </mxCell>
        <mxCell id="qE77xGYlSXGq1pr1HXSm-0" value="START" style="ellipse;whiteSpace=wrap;html=1;" vertex="1" parent="WIyWlLk6GJQsqaUBKTNV-1">
          <mxGeometry x="160" y="40" width="120" height="80" as="geometry" />
        </mxCell>
        <mxCell id="qE77xGYlSXGq1pr1HXSm-8" value="" style="edgeStyle=orthogonalEdgeStyle;rounded=0;orthogonalLoop=1;jettySize=auto;html=1;" edge="1" parent="WIyWlLk6GJQsqaUBKTNV-1" source="qE77xGYlSXGq1pr1HXSm-1" target="qE77xGYlSXGq1pr1HXSm-3">
          <mxGeometry relative="1" as="geometry" />
        </mxCell>
        <mxCell id="qE77xGYlSXGq1pr1HXSm-1" value="pobierz wartość a" style="rounded=0;whiteSpace=wrap;html=1;" vertex="1" parent="WIyWlLk6GJQsqaUBKTNV-1">
          <mxGeometry x="160" y="160" width="120" height="60" as="geometry" />
        </mxCell>
        <mxCell id="qE77xGYlSXGq1pr1HXSm-5" value="NIE" style="edgeStyle=orthogonalEdgeStyle;rounded=0;orthogonalLoop=1;jettySize=auto;html=1;" edge="1" parent="WIyWlLk6GJQsqaUBKTNV-1" source="qE77xGYlSXGq1pr1HXSm-3" target="qE77xGYlSXGq1pr1HXSm-4">
          <mxGeometry relative="1" as="geometry" />
        </mxCell>
        <mxCell id="qE77xGYlSXGq1pr1HXSm-7" value="TAK" style="edgeStyle=orthogonalEdgeStyle;rounded=0;orthogonalLoop=1;jettySize=auto;html=1;" edge="1" parent="WIyWlLk6GJQsqaUBKTNV-1" source="qE77xGYlSXGq1pr1HXSm-3" target="qE77xGYlSXGq1pr1HXSm-6">
          <mxGeometry relative="1" as="geometry" />
        </mxCell>
        <mxCell id="qE77xGYlSXGq1pr1HXSm-3" value="a &amp;lt; 0" style="rhombus;whiteSpace=wrap;html=1;" vertex="1" parent="WIyWlLk6GJQsqaUBKTNV-1">
          <mxGeometry x="180" y="270" width="80" height="80" as="geometry" />
        </mxCell>
        <mxCell id="qE77xGYlSXGq1pr1HXSm-12" value="" style="edgeStyle=orthogonalEdgeStyle;rounded=0;orthogonalLoop=1;jettySize=auto;html=1;" edge="1" parent="WIyWlLk6GJQsqaUBKTNV-1" source="qE77xGYlSXGq1pr1HXSm-4" target="qE77xGYlSXGq1pr1HXSm-11">
          <mxGeometry relative="1" as="geometry" />
        </mxCell>
        <mxCell id="qE77xGYlSXGq1pr1HXSm-4" value="wyświetl a" style="rounded=0;whiteSpace=wrap;html=1;" vertex="1" parent="WIyWlLk6GJQsqaUBKTNV-1">
          <mxGeometry x="160" y="400" width="120" height="60" as="geometry" />
        </mxCell>
        <mxCell id="qE77xGYlSXGq1pr1HXSm-10" value="" style="edgeStyle=orthogonalEdgeStyle;rounded=0;orthogonalLoop=1;jettySize=auto;html=1;" edge="1" parent="WIyWlLk6GJQsqaUBKTNV-1" source="qE77xGYlSXGq1pr1HXSm-6" target="qE77xGYlSXGq1pr1HXSm-4">
          <mxGeometry relative="1" as="geometry">
            <Array as="points">
              <mxPoint x="370" y="440" />
            </Array>
          </mxGeometry>
        </mxCell>
        <mxCell id="qE77xGYlSXGq1pr1HXSm-6" value="a = a * (-1)" style="rounded=0;whiteSpace=wrap;html=1;" vertex="1" parent="WIyWlLk6GJQsqaUBKTNV-1">
          <mxGeometry x="310" y="280" width="120" height="60" as="geometry" />
        </mxCell>
        <mxCell id="qE77xGYlSXGq1pr1HXSm-11" value="STOP" style="ellipse;whiteSpace=wrap;html=1;" vertex="1" parent="WIyWlLk6GJQsqaUBKTNV-1">
          <mxGeometry x="160" y="504.5" width="120" height="80" as="geometry" />
        </mxCell>
      </root>
    </mxGraphModel>
  </diagram>
</mxfile>
